<svg xmlns="http://www.w3.org/2000/svg" xmlns:xlink="http://www.w3.org/1999/xlink" width="8" height="14"><path fill="#bbbbbb" d="M8 9L8 8L7 8L7 9ZM8 10L7 10L7 11L8 11ZM8 12L7 12L7 13L8 13ZM8 6L7 6L7 7L8 7ZM8 4L7 4L7 5L8 5ZM8 1L8 0L7 0L7 1ZM8 2L7 2L7 3L8 3ZM3 0L3 1L4 1L4 0ZM3 9L4 9L4 8L3 8ZM3 11L4 11L4 10L3 10ZM3 13L4 13L4 12L3 12ZM3 7L4 7L4 6L3 6ZM3 5L4 5L4 4L3 4ZM3 3L4 3L4 2L3 2ZM6 9L5 9L5 10L6 10ZM6 11L5 11L5 12L6 12ZM6 13L5 13L5 14L6 14ZM6 6L6 5L5 5L5 6ZM6 7L5 7L5 8L6 8ZM6 4L6 3L5 3L5 4ZM6 1L5 1L5 2L6 2ZM1 10L2 10L2 9L1 9ZM1 12L2 12L2 11L1 11ZM1 13L1 14L2 14L2 13ZM1 6L2 6L2 5L1 5ZM1 8L2 8L2 7L1 7ZM1 4L2 4L2 3L1 3ZM1 2L2 2L2 1L1 1Z"/></svg>