<svg xmlns="http://www.w3.org/2000/svg" xmlns:xlink="http://www.w3.org/1999/xlink" width="8" height="14"><path fill="#000000" d="M0 10L1 10L1 9L0 9ZM0 12L1 12L1 11L0 11ZM0 13L0 14L1 14L1 13ZM0 6L1 6L1 5L0 5ZM0 8L1 8L1 7L0 7ZM0 4L1 4L1 3L0 3ZM0 2L1 2L1 1L0 1ZM8 9L8 8L7 8L7 9ZM8 10L7 10L7 11L8 11ZM8 12L7 12L7 13L8 13ZM8 6L7 6L7 7L8 7ZM8 4L7 4L7 5L8 5ZM8 1L8 0L7 0L7 1ZM8 2L7 2L7 3L8 3ZM3 0L3 1L4 1L4 0ZM3 9L2 9L2 10L3 10ZM3 10L3 11L4 11L4 10ZM3 11L2 11L2 12L3 12ZM3 12L3 13L4 13L4 12ZM3 13L2 13L2 14L3 14ZM3 6L3 7L4 7L4 6ZM3 7L2 7L2 8L3 8ZM3 8L3 9L4 9L4 8ZM3 4L3 5L4 5L4 4ZM3 5L2 5L2 6L3 6ZM3 1L2 1L2 2L3 2ZM3 2L3 3L4 3L4 2ZM3 3L2 3L2 4L3 4ZM6 9L6 8L5 8L5 9ZM6 10L7 10L7 9L6 9ZM6 11L6 10L5 10L5 11ZM6 12L7 12L7 11L6 11ZM6 13L6 12L5 12L5 13ZM6 6L5 6L5 7L6 7ZM6 7L6 8L7 8L7 7ZM6 14L7 14L7 13L6 13ZM6 4L5 4L5 5L6 5ZM6 5L6 6L7 6L7 5ZM6 1L6 0L5 0L5 1ZM6 2L7 2L7 1L6 1ZM6 3L6 2L5 2L5 3ZM1 0L1 1L2 1L2 0ZM1 9L2 9L2 8L1 8ZM1 10L1 11L2 11L2 10ZM1 12L1 13L2 13L2 12ZM1 6L1 7L2 7L2 6ZM1 4L1 5L2 5L2 4ZM1 2L1 3L2 3L2 2ZM4 9L4 10L5 10L5 9ZM4 11L4 12L5 12L5 11ZM4 13L4 14L5 14L5 13ZM4 6L5 6L5 5L4 5ZM4 7L4 8L5 8L5 7ZM4 4L5 4L5 3L4 3ZM4 1L4 2L5 2L5 1ZM7 4L7 3L6 3L6 4Z"/></svg>