<svg xmlns="http://www.w3.org/2000/svg" xmlns:xlink="http://www.w3.org/1999/xlink" width="8" height="14"><path fill="#000000" d="M0 9L1 9L1 10L0 10L0 11L1 11L1 12L0 12L0 13L1 13L1 14L4 14L4 13L5 13L5 14L8 14L8 0L7 0L7 1L6 1L6 0L3 0L3 1L2 1L2 0L0 0L0 1L1 1L1 2L0 2L0 3L1 3L1 4L0 4L0 5L1 5L1 6L0 6L0 7L1 7L1 8L0 8ZM3 9L2 9L2 8L3 8ZM3 10L3 11L2 11L2 10ZM3 12L3 13L2 13L2 12ZM3 6L3 7L2 7L2 6ZM3 4L3 5L2 5L2 4ZM3 2L3 3L2 3L2 2ZM6 9L6 8L7 8L7 9ZM6 10L7 10L7 11L6 11ZM6 12L7 12L7 13L6 13ZM6 6L7 6L7 7L6 7ZM6 4L7 4L7 5L6 5ZM6 2L7 2L7 3L6 3ZM4 9L5 9L5 10L4 10ZM4 11L5 11L5 12L4 12ZM4 6L4 5L5 5L5 6ZM4 7L5 7L5 8L4 8ZM4 4L4 3L5 3L5 4ZM4 1L5 1L5 2L4 2Z"/></svg>